<svg width="102" height="34" viewBox="0 0 102 34" fill="none" xmlns="http://www.w3.org/2000/svg">
<g clip-path="url(#clip0_26026_45981)">
<path d="M25.1051 11.8065H13.2075V15.337H21.6454C21.2286 20.2876 17.1096 22.3991 13.2217 22.3991C8.24753 22.3991 3.90684 18.4854 3.90684 12.9998C3.90684 7.65599 8.04454 3.54061 13.2327 3.54061C17.2353 3.54061 19.5939 6.09206 19.5939 6.09206L22.0661 3.53219C22.0661 3.53219 18.8932 0 13.1064 0C5.73764 0 0.0371094 6.21909 0.0371094 12.9366C0.0371094 19.519 5.39937 25.9375 13.2942 25.9375C20.2378 25.9375 25.3206 21.1809 25.3206 14.1469C25.3206 12.6631 25.1051 11.8054 25.1051 11.8054V11.8065Z" fill="#4885ED"/>
<path d="M34.8514 9.24927C29.9694 9.24927 26.4707 13.0661 26.4707 17.5174C26.4707 22.0345 29.8643 25.9222 34.9087 25.9222C39.4752 25.9222 43.2165 22.4319 43.2165 17.6145C43.2165 12.0929 38.8646 9.24927 34.8514 9.24927ZM34.8999 12.5237C37.3005 12.5237 39.5755 14.4647 39.5755 17.5922C39.5755 20.6534 37.3102 22.6497 34.8889 22.6497C32.2282 22.6497 30.1292 20.5187 30.1292 17.5679C30.1292 14.6804 32.2022 12.5237 34.8999 12.5237Z" fill="#DB3236"/>
<path d="M53.0779 9.24927C48.196 9.24927 44.6973 13.0661 44.6973 17.5174C44.6973 22.0345 48.0909 25.9222 53.1352 25.9222C57.7018 25.9222 61.4428 22.4319 61.4428 17.6145C61.443 12.0929 57.0912 9.24927 53.0779 9.24927ZM53.1264 12.5237C55.5274 12.5237 57.8023 14.4647 57.8023 17.5922C57.8023 20.6534 55.5369 22.6497 53.1154 22.6497C50.4549 22.6497 48.3559 20.5187 48.3559 17.5679C48.3559 14.6804 50.4287 12.5237 53.1264 12.5237Z" fill="#F4C20D"/>
<path d="M70.9565 9.25806C66.4754 9.25806 62.9531 13.1827 62.9531 17.5878C62.9531 22.6056 67.0366 25.933 70.8793 25.933C73.2552 25.933 74.5186 24.9899 75.4513 23.9074V25.5511C75.4513 28.4271 73.7051 30.1497 71.0693 30.1497C68.5228 30.1497 67.2457 28.2563 66.8018 27.1819L63.598 28.5214C64.7345 30.9248 67.0226 33.431 71.096 33.431C75.5513 33.431 78.9469 30.6247 78.9469 24.7392V9.75941H75.4517V11.1716C74.3769 10.0135 72.907 9.25824 70.9565 9.25806ZM71.2809 12.5261C73.4778 12.5261 75.734 14.4021 75.734 17.6056C75.734 20.8619 73.4827 22.6565 71.2324 22.6565C68.8433 22.6565 66.6206 20.7168 66.6206 17.6365C66.6206 14.436 68.9291 12.5261 71.2809 12.5261Z" fill="#4885ED"/>
<path d="M94.4868 9.23828C90.2598 9.23828 86.7109 12.6013 86.7109 17.5637C86.7109 22.8146 90.6667 25.9288 94.893 25.9288C98.4202 25.9288 100.585 23.9991 101.877 22.2703L98.9948 20.3527C98.2471 21.5132 96.9969 22.6475 94.9106 22.6475C92.5667 22.6475 91.4893 21.3642 90.8217 20.121L102 15.4828L101.419 14.1235C100.34 11.4617 97.8204 9.23865 94.4872 9.23865L94.4868 9.23828ZM94.6323 12.4445C96.1556 12.4445 97.2517 13.2543 97.7174 14.2251L90.2526 17.3453C89.9307 14.9297 92.2191 12.4445 94.6323 12.4445Z" fill="#DB3236"/>
<path d="M81.3809 25.4338H85.0525V0.861816H81.3809V25.4338Z" fill="#3CBA54"/>
</g>
<defs>
<clipPath id="clip0_26026_45981">
<rect width="102" height="34" fill="white"/>
</clipPath>
</defs>
</svg>
