<svg width="161" height="33" viewBox="0 0 161 33" fill="none" xmlns="http://www.w3.org/2000/svg">
<g clip-path="url(#clip0_26026_45992)">
<path d="M100.716 22.7918C100.716 16.5649 105.739 11.9535 111.882 11.9535C117.966 11.9535 122.989 16.5649 122.989 22.7918C122.989 29.0355 117.966 33.6546 111.882 33.6546C105.739 33.6469 100.716 29.0355 100.716 22.7918ZM62.7898 4.54853V5.81075C62.7898 6.28198 62.6888 6.42568 62.5969 6.61856L50.7062 26.8645C50.6815 26.8982 50.697 26.9487 50.7488 26.9487H63.4124V32.9737H40.6084V31.7956C40.6084 31.2739 40.6757 31.1652 40.9619 30.6434L52.7179 10.6745C52.7426 10.6331 52.7257 10.5903 52.6753 10.5903H40.9696V4.54853H62.7898ZM136.057 32.9659H129.966L123.343 12.4753H129.889L131.783 18.6776C132.414 20.7309 133.474 24.5848 133.474 24.5848C133.491 24.6353 133.558 24.6263 133.566 24.5848C133.566 24.5848 134.66 20.6544 135.284 18.6776L137.27 12.4753H142.1L144.052 18.6776C144.709 20.7982 145.735 24.5848 145.735 24.5848C145.751 24.6353 145.81 24.6353 145.836 24.5848C145.836 24.5848 146.896 20.7554 147.527 18.6776L149.421 12.4753H155.503L148.924 32.9659H142.941L141.309 27.816C140.685 25.7965 139.583 21.8752 139.583 21.8752C139.566 21.8248 139.499 21.8248 139.491 21.8752C139.491 21.8752 138.388 25.7202 137.724 27.7824L136.057 32.9659ZM74.2598 32.9659H67.6368V12.4753H74.2598V32.9659ZM79.2828 1.64478H85.9059V32.9659H79.2828V1.64478ZM90.811 1.64478H97.4341V32.9659H90.811V1.64478ZM116.637 22.7918C116.637 19.7456 114.457 17.6666 111.882 17.6666C109.249 17.6666 107.068 19.7456 107.068 22.7918C107.068 25.8638 109.249 27.9158 111.882 27.9158C114.457 27.9171 116.637 25.8638 116.637 22.7918ZM158.803 7.56102C157.439 7.56102 156.329 8.67177 156.329 10.035C156.329 11.3982 157.439 12.5089 158.803 12.5089C160.166 12.5089 161.277 11.3982 161.277 10.035C161.277 8.67177 160.166 7.56102 158.803 7.56102ZM158.803 12.0299C157.701 12.0299 156.807 11.138 156.807 10.035C156.807 8.93328 157.699 8.04132 158.803 8.04132C159.904 8.04132 160.797 8.93328 160.797 10.035C160.797 11.138 159.905 12.0299 158.803 12.0299ZM158.946 8.55396C159.519 8.55396 159.93 8.97471 159.93 9.55598C159.93 10.0013 159.686 10.347 159.324 10.4894L159.889 11.415H159.35L158.827 10.5567H158.365V11.415H157.894V8.55396H158.946ZM158.92 8.97471H158.365V10.136H158.92C159.232 10.136 159.458 9.89127 159.458 9.55598C159.458 9.21939 159.232 8.97471 158.92 8.97471ZM70.9444 2.20922C73.0054 2.20922 74.7142 3.87535 74.7142 5.92856C74.7142 7.98176 73.0054 9.64789 70.9444 9.64789C68.8822 9.64789 67.1745 7.98176 67.1745 5.92856C67.1732 3.87535 68.8822 2.20922 70.9444 2.20922Z" fill="#006AFF"/>
<path d="M8.27374 29.5083C8.14767 29.576 8.045 29.5591 7.94363 29.4577L5.1221 26.0956C5.04673 26.0019 5.03763 25.9513 5.139 25.8083C7.31981 22.6151 11.7711 17.6387 14.6095 15.536C14.6602 15.5021 14.6433 15.4592 14.5835 15.4853C11.6268 16.4483 3.22203 20.0639 0.113281 21.821V33.241H30.365V22.2434C26.2427 22.9439 13.8921 26.6192 8.27374 29.5083ZM20.5735 8.96364C20.7256 8.92985 20.7932 8.98054 20.8856 9.08191C21.4092 9.66415 23.0832 11.7085 23.5381 12.266C23.6226 12.3674 23.5641 12.4779 23.4965 12.5364C20.1173 15.172 16.3575 18.9058 14.2625 21.5754C14.2209 21.6351 14.2547 21.6351 14.2885 21.6261C17.9379 20.0548 26.5117 17.5452 30.3729 16.8447V11.9541L15.2606 0L0.122379 11.945V17.2917C4.8102 14.5053 15.657 10.1879 20.5735 8.96364Z" fill="#006AFF"/>
</g>
<defs>
<clipPath id="clip0_26026_45992">
<rect width="160.875" height="33" fill="white"/>
</clipPath>
</defs>
</svg>
